<?xml version="1.0" encoding="UTF-8" standalone="no"?>
<!-- Created with Inkscape (http://www.inkscape.org/) -->
<svg xmlns:rdf="http://www.w3.org/1999/02/22-rdf-syntax-ns#" xmlns="http://www.w3.org/2000/svg" version="1.1" xmlns:cc="http://creativecommons.org/ns#" xmlns:dc="http://purl.org/dc/elements/1.1/" viewBox="0 0 445.03 445.03">
 <g transform="translate(-149.57787,-292.85912)">
  <path fill="#fff" d="m372.08,312.86c-111.85,0-202.5,90.652-202.5,202.5s90.652,202.53,202.5,202.53,202.53-90.683,202.53-202.53-90.683-202.5-202.53-202.5zm0.28125,19.5c193.47,105.53,172.98,328.86-13.062,366-67.347-60.309-171.26-94.166-99.031-255.53,123.6,194,175.35,1.3764,112.09-110.47zm87.469,159.28c-15.841,77.341-100.02,127.4-164.19,67.031-17.52,45.743,30.372,102.4,68.406,124.94,74.021-21.907,143.19-115.4,95.781-191.97z"/>
 </g>
</svg>
