<?xml version="1.0" encoding="UTF-8" standalone="no"?>
<!-- Created with Inkscape (http://www.inkscape.org/) -->

<svg
   xmlns:dc="http://purl.org/dc/elements/1.1/"
   xmlns:cc="http://creativecommons.org/ns#"
   xmlns:rdf="http://www.w3.org/1999/02/22-rdf-syntax-ns#"
   xmlns:svg="http://www.w3.org/2000/svg"
   xmlns="http://www.w3.org/2000/svg"
   xmlns:xlink="http://www.w3.org/1999/xlink"
   xmlns:sodipodi="http://sodipodi.sourceforge.net/DTD/sodipodi-0.dtd"
   xmlns:inkscape="http://www.inkscape.org/namespaces/inkscape"
   width="437.44717"
   height="437.44717"
   id="svg2"
   version="1.1"
   inkscape:version="0.48.3.1 r9886"
   sodipodi:docname="firemark.svg"
   inkscape:export-filename="/misc/grafika/firemark.png"
   inkscape:export-xdpi="26.334608"
   inkscape:export-ydpi="26.334608">
  <defs
     id="defs4">
    <linearGradient
       inkscape:collect="always"
       id="linearGradient3923">
      <stop
         style="stop-color:#13579e;stop-opacity:1"
         offset="0"
         id="stop3925" />
      <stop
         style="stop-color:#69adf3;stop-opacity:1"
         offset="1"
         id="stop3927" />
    </linearGradient>
    <filter
       inkscape:collect="always"
       id="filter3857">
      <feGaussianBlur
         inkscape:collect="always"
         stdDeviation="2.0514062"
         id="feGaussianBlur3859" />
    </filter>
    <filter
       inkscape:collect="always"
       id="filter3919">
      <feGaussianBlur
         inkscape:collect="always"
         stdDeviation="2.0514062"
         id="feGaussianBlur3921" />
    </filter>
    <linearGradient
       inkscape:collect="always"
       xlink:href="#linearGradient3923"
       id="linearGradient3929"
       x1="228.5656"
       y1="419.28738"
       x2="223.32201"
       y2="12.938163"
       gradientUnits="userSpaceOnUse" />
    <linearGradient
       inkscape:collect="always"
       xlink:href="#linearGradient3923-5"
       id="linearGradient3929-8"
       x1="228.5656"
       y1="419.28738"
       x2="223.32201"
       y2="12.938163"
       gradientUnits="userSpaceOnUse" />
    <linearGradient
       inkscape:collect="always"
       id="linearGradient3923-5">
      <stop
         style="stop-color:#13579e;stop-opacity:1"
         offset="0"
         id="stop3925-2" />
      <stop
         style="stop-color:#69adf3;stop-opacity:1"
         offset="1"
         id="stop3927-7" />
    </linearGradient>
    <linearGradient
       gradientTransform="translate(-617.21876,-26.40753)"
       y2="12.938163"
       x2="223.32201"
       y1="419.28738"
       x1="228.5656"
       gradientUnits="userSpaceOnUse"
       id="linearGradient3022"
       xlink:href="#linearGradient3923-5"
       inkscape:collect="always" />
    <linearGradient
       inkscape:collect="always"
       xlink:href="#linearGradient3923-5"
       id="linearGradient3044"
       gradientUnits="userSpaceOnUse"
       gradientTransform="translate(153.35911,296.63909)"
       x1="228.5656"
       y1="419.28738"
       x2="223.32201"
       y2="12.938163" />
    <linearGradient
       inkscape:collect="always"
       xlink:href="#linearGradient3923-5-0"
       id="linearGradient3044-7"
       gradientUnits="userSpaceOnUse"
       gradientTransform="translate(153.35911,296.63909)"
       x1="228.5656"
       y1="419.28738"
       x2="223.32201"
       y2="12.938163" />
    <linearGradient
       inkscape:collect="always"
       id="linearGradient3923-5-0">
      <stop
         style="stop-color:#13579e;stop-opacity:1"
         offset="0"
         id="stop3925-2-7" />
      <stop
         style="stop-color:#69adf3;stop-opacity:1"
         offset="1"
         id="stop3927-7-9" />
    </linearGradient>
    <filter
       inkscape:collect="always"
       id="filter3852">
      <feGaussianBlur
         inkscape:collect="always"
         stdDeviation="2.0251563"
         id="feGaussianBlur3854" />
    </filter>
    <linearGradient
       inkscape:collect="always"
       xlink:href="#linearGradient3923-5-5"
       id="linearGradient3044-79"
       gradientUnits="userSpaceOnUse"
       gradientTransform="translate(153.35911,296.63909)"
       x1="228.5656"
       y1="419.28738"
       x2="223.32201"
       y2="12.938163" />
    <linearGradient
       inkscape:collect="always"
       id="linearGradient3923-5-5">
      <stop
         style="stop-color:#13579e;stop-opacity:1"
         offset="0"
         id="stop3925-2-9" />
      <stop
         style="stop-color:#69adf3;stop-opacity:1"
         offset="1"
         id="stop3927-7-1" />
    </linearGradient>
    <filter
       inkscape:collect="always"
       id="filter3890">
      <feGaussianBlur
         inkscape:collect="always"
         stdDeviation="4.0503125"
         id="feGaussianBlur3892" />
    </filter>
  </defs>
  <sodipodi:namedview
     id="base"
     pagecolor="#ffffff"
     bordercolor="#666666"
     borderopacity="1.0"
     inkscape:pageopacity="0.0"
     inkscape:pageshadow="2"
     inkscape:zoom="0.76289062"
     inkscape:cx="87.630973"
     inkscape:cy="201.73614"
     inkscape:document-units="px"
     inkscape:current-layer="layer1"
     showgrid="false"
     fit-margin-top="0"
     fit-margin-left="0"
     fit-margin-right="0"
     fit-margin-bottom="0"
     inkscape:window-width="1362"
     inkscape:window-height="724"
     inkscape:window-x="0"
     inkscape:window-y="20"
     inkscape:window-maximized="0" />
  <metadata
     id="metadata7">
    <rdf:RDF>
      <cc:Work
         rdf:about="">
        <dc:format>image/svg+xml</dc:format>
        <dc:type
           rdf:resource="http://purl.org/dc/dcmitype/StillImage" />
        <dc:title></dc:title>
      </cc:Work>
    </rdf:RDF>
  </metadata>
  <g
     inkscape:label="Layer 1"
     inkscape:groupmode="layer"
     id="layer1"
     transform="translate(-153.36991,-296.65116)">
    <path
       style="fill:#000000;fill-opacity:1;stroke:none;filter:url(#filter3852)"
       d="m 376.07787,316.85912 c -111.84826,0 -202.5,90.65174 -202.5,202.5 0,111.84826 90.65174,202.53125 202.5,202.53125 111.84826,0 202.53125,-90.68299 202.53125,-202.53125 0,-111.84826 -90.68299,-202.5 -202.53125,-202.5 z m 0.28125,19.5 c 193.46556,105.52596 172.97751,328.86367 -13.0625,366 -67.34736,-60.30943 -171.26315,-94.1658 -99.03125,-255.53125 123.60279,194.0024 175.34872,1.37643 112.09375,-110.46875 z m 87.46875,159.28125 c -15.84083,77.34104 -100.02309,127.40392 -164.1875,67.03125 -17.51993,45.74308 30.37231,102.39956 68.40625,124.9375 74.02126,-21.90717 143.18989,-115.39557 95.78125,-191.96875 z"
       id="rect3824-8-1"
       inkscape:connector-curvature="0" />
    <path
       style="fill:#a4d4f6;fill-opacity:1;stroke:none;filter:url(#filter3890)"
       d="m 370.07787,308.85912 c -111.84826,0 -202.5,90.65174 -202.5,202.5 0,111.84826 90.65174,202.53125 202.5,202.53125 111.84826,0 202.53125,-90.68299 202.53125,-202.53125 0,-111.84826 -90.68299,-202.5 -202.53125,-202.5 z m 0.28125,19.5 c 193.46556,105.52596 172.97751,328.86367 -13.0625,366 -67.34736,-60.30943 -171.26315,-94.1658 -99.03125,-255.53125 123.60279,194.0024 175.34872,1.37643 112.09375,-110.46875 z m 87.46875,159.28125 c -15.84083,77.34104 -100.02309,127.40392 -164.1875,67.03125 -17.51993,45.74308 30.37231,102.39956 68.40625,124.9375 74.02126,-21.90717 143.18989,-115.39557 95.78125,-191.96875 z"
       id="rect3824-8-12"
       inkscape:connector-curvature="0" />
    <path
       style="fill:url(#linearGradient3044);fill-opacity:1;stroke:none"
       d="m 372.07787,312.85912 c -111.84826,0 -202.5,90.65174 -202.5,202.5 0,111.84826 90.65174,202.53125 202.5,202.53125 111.84826,0 202.53125,-90.68299 202.53125,-202.53125 0,-111.84826 -90.68299,-202.5 -202.53125,-202.5 z m 0.28125,19.5 c 193.46556,105.52596 172.97751,328.86367 -13.0625,366 -67.34736,-60.30943 -171.26315,-94.1658 -99.03125,-255.53125 123.60279,194.0024 175.34872,1.37643 112.09375,-110.46875 z m 87.46875,159.28125 c -15.84083,77.34104 -100.02309,127.40392 -164.1875,67.03125 -17.51993,45.74308 30.37231,102.39956 68.40625,124.9375 74.02126,-21.90717 143.18989,-115.39557 95.78125,-191.96875 z"
       id="rect3824-8"
       inkscape:connector-curvature="0" />
  </g>
</svg>
